<svg width="72" height="65" viewBox="0 0 72 65" fill="none" xmlns="http://www.w3.org/2000/svg">
<path d="M9.84916 17.3421L18.0762 27.4076M8.54275 26.8048L18.9955 18.2613M48.2002 11.7866L48.9356 18.9471M48.9808 18.7719L70.2053 12.5556M38.0251 24.2201L52.4086 28.4763C54.527 29.1032 56.7524 27.8941 57.3792 25.7757L61.6354 11.3922C62.2622 9.2739 61.0531 7.04849 58.9348 6.42166L44.5513 2.16545C42.433 1.53861 40.2076 2.74772 39.5807 4.86606L35.3245 19.2495C34.6977 21.3679 35.9068 23.5933 38.0251 24.2201ZM5.74351 33.6104L20.7126 34.5728C22.9172 34.7145 24.8193 33.0422 24.961 30.8376L25.9234 15.8685C26.0651 13.664 24.3928 11.7619 22.1882 11.6202L7.21915 10.6578C5.01457 10.516 3.1125 12.1883 2.97076 14.3929L2.00838 29.362C1.86665 31.5666 3.53892 33.4687 5.74351 33.6104ZM27.3655 53.5242L39.848 61.8422C41.6863 63.0673 44.1697 62.5701 45.3947 60.7317L53.7127 48.2493C54.9378 46.4109 54.4406 43.9275 52.6022 42.7025L40.1198 34.3845C38.2814 33.1595 35.798 33.6567 34.573 35.495L26.255 47.9775C25.03 49.8158 25.5272 52.2992 27.3655 53.5242Z" stroke="#707070" stroke-width="3" stroke-linecap="round"/>
</svg>
