<svg width="156" height="95" viewBox="0 0 156 95" fill="none" xmlns="http://www.w3.org/2000/svg">
<path d="M89.8693 49V19.9091H95.1392V44.5824H107.952V49H89.8693Z" fill="#C7C7C7"/>
<path d="M112.298 49V27.1818H117.44V49H112.298ZM114.884 24.0852C114.069 24.0852 113.368 23.8153 112.781 23.2756C112.194 22.7263 111.901 22.0682 111.901 21.3011C111.901 20.5246 112.194 19.8665 112.781 19.3267C113.368 18.7775 114.069 18.5028 114.884 18.5028C115.707 18.5028 116.408 18.7775 116.986 19.3267C117.573 19.8665 117.866 20.5246 117.866 21.3011C117.866 22.0682 117.573 22.7263 116.986 23.2756C116.408 23.8153 115.707 24.0852 114.884 24.0852Z" fill="#C7C7C7"/>
<path d="M139.972 32.9489L135.285 33.4602C135.152 32.9867 134.92 32.5417 134.589 32.125C134.267 31.7083 133.831 31.3722 133.282 31.1165C132.733 30.8608 132.06 30.733 131.265 30.733C130.195 30.733 129.295 30.965 128.566 31.429C127.846 31.893 127.491 32.4943 127.501 33.233C127.491 33.8674 127.723 34.3835 128.197 34.7812C128.68 35.179 129.475 35.5057 130.583 35.7614L134.305 36.5568C136.369 37.0019 137.903 37.7074 138.907 38.6733C139.92 39.6392 140.432 40.9034 140.441 42.4659C140.432 43.839 140.029 45.0511 139.234 46.1023C138.448 47.1439 137.354 47.9583 135.952 48.5455C134.551 49.1326 132.941 49.4261 131.123 49.4261C128.452 49.4261 126.303 48.8674 124.674 47.75C123.045 46.6231 122.075 45.0559 121.762 43.0483L126.776 42.5653C127.004 43.5502 127.487 44.2936 128.225 44.7955C128.964 45.2973 129.925 45.5483 131.109 45.5483C132.33 45.5483 133.31 45.2973 134.049 44.7955C134.797 44.2936 135.171 43.6733 135.171 42.9347C135.171 42.3097 134.93 41.7936 134.447 41.3864C133.973 40.9792 133.235 40.6667 132.231 40.4489L128.509 39.6676C126.416 39.232 124.868 38.4981 123.864 37.4659C122.861 36.4242 122.363 35.108 122.373 33.517C122.363 32.1723 122.728 31.0076 123.467 30.0227C124.215 29.0284 125.252 28.2614 126.577 27.7216C127.913 27.1723 129.451 26.8977 131.194 26.8977C133.751 26.8977 135.763 27.4422 137.231 28.5312C138.708 29.6203 139.622 31.0928 139.972 32.9489Z" fill="#C7C7C7"/>
<path d="M155.576 27.1818V31.1591H143.033V27.1818H155.576ZM146.13 21.9545H151.272V42.4375C151.272 43.1288 151.376 43.6591 151.585 44.0284C151.802 44.3883 152.086 44.6345 152.437 44.767C152.787 44.8996 153.175 44.9659 153.602 44.9659C153.924 44.9659 154.217 44.9422 154.482 44.8949C154.757 44.8475 154.965 44.8049 155.107 44.767L155.974 48.7869C155.699 48.8816 155.306 48.9858 154.795 49.0994C154.293 49.2131 153.677 49.2794 152.948 49.2983C151.66 49.3362 150.5 49.142 149.468 48.7159C148.436 48.2803 147.617 47.608 147.011 46.6989C146.414 45.7898 146.12 44.6534 146.13 43.2898V21.9545Z" fill="#C7C7C7"/>
<path d="M64 64.3037V10C64 4.47715 59.5228 0 54 0H10C4.47715 0 0 4.47714 0 9.99999V64.1202C0 66.9537 1.20206 69.6541 3.30743 71.5505L26.0866 92.068C29.9785 95.5734 35.9158 95.4819 39.6977 91.858L60.9186 71.5241C62.887 69.6379 64 67.0299 64 64.3037Z" fill="#FFD231"/>
<path d="M20.2895 59.4286H12.9797V40.4304H20.2153C22.1695 40.4304 23.8578 40.8107 25.2802 41.5714C26.7088 42.3259 27.8096 43.4143 28.5826 44.8367C29.3618 46.2529 29.7515 47.9505 29.7515 49.9295C29.7515 51.9085 29.3649 53.6091 28.5919 55.0315C27.8189 56.4477 26.7242 57.5362 25.308 58.2968C23.8918 59.0513 22.219 59.4286 20.2895 59.4286ZM18.1374 55.0501H20.104C21.044 55.0501 21.8448 54.8986 22.5066 54.5955C23.1745 54.2925 23.6816 53.7699 24.0279 53.0278C24.3804 52.2857 24.5567 51.2529 24.5567 49.9295C24.5567 48.6061 24.3773 47.5733 24.0186 46.8312C23.6661 46.089 23.1466 45.5665 22.4602 45.2634C21.7799 44.9604 20.945 44.8089 19.9555 44.8089H18.1374V55.0501Z" fill="black"/>
<path d="M50.5423 49.9295C50.5423 52.0445 50.131 53.8287 49.3085 55.282C48.486 56.7291 47.3759 57.8268 45.9783 58.5751C44.5806 59.3172 43.0222 59.6883 41.3029 59.6883C39.5713 59.6883 38.0067 59.3142 36.6091 58.5659C35.2176 57.8114 34.1106 56.7106 33.2881 55.2634C32.4718 53.8101 32.0636 52.0322 32.0636 49.9295C32.0636 47.8145 32.4718 46.0334 33.2881 44.5863C34.1106 43.133 35.2176 42.0352 36.6091 41.2931C38.0067 40.5448 39.5713 40.1707 41.3029 40.1707C43.0222 40.1707 44.5806 40.5448 45.9783 41.2931C47.3759 42.0352 48.486 43.133 49.3085 44.5863C50.131 46.0334 50.5423 47.8145 50.5423 49.9295ZM45.2362 49.9295C45.2362 48.7916 45.0846 47.833 44.7816 47.0538C44.4848 46.2684 44.0426 45.6747 43.4551 45.2727C42.8738 44.8646 42.1564 44.6605 41.3029 44.6605C40.4495 44.6605 39.729 44.8646 39.1415 45.2727C38.5602 45.6747 38.118 46.2684 37.815 47.0538C37.5182 47.833 37.3697 48.7916 37.3697 49.9295C37.3697 51.0674 37.5182 52.0291 37.815 52.8145C38.118 53.5937 38.5602 54.1874 39.1415 54.5955C39.729 54.9975 40.4495 55.1985 41.3029 55.1985C42.1564 55.1985 42.8738 54.9975 43.4551 54.5955C44.0426 54.1874 44.4848 53.5937 44.7816 52.8145C45.0846 52.0291 45.2362 51.0674 45.2362 49.9295Z" fill="black"/>
<path d="M12.4602 19.1169V14.961H28.9722V19.1169H23.2579V33.9592H18.1745V19.1169H12.4602Z" fill="black"/>
<path d="M48.4249 24.4601C48.4249 26.5751 48.0137 28.3593 47.1912 29.8126C46.3686 31.2597 45.2586 32.3574 43.8609 33.1057C42.4633 33.8479 40.9048 34.2189 39.1856 34.2189C37.454 34.2189 35.8894 33.8448 34.4917 33.0965C33.1003 32.342 31.9933 31.2412 31.1707 29.7941C30.3544 28.3407 29.9463 26.5628 29.9463 24.4601C29.9463 22.3451 30.3544 20.564 31.1707 19.1169C31.9933 17.6636 33.1003 16.5659 34.4917 15.8237C35.8894 15.0754 37.454 14.7013 39.1856 14.7013C40.9048 14.7013 42.4633 15.0754 43.8609 15.8237C45.2586 16.5659 46.3686 17.6636 47.1912 19.1169C48.0137 20.564 48.4249 22.3451 48.4249 24.4601ZM43.1188 24.4601C43.1188 23.3222 42.9673 22.3636 42.6643 21.5844C42.3674 20.799 41.9252 20.2053 41.3377 19.8033C40.7564 19.3952 40.039 19.1911 39.1856 19.1911C38.3322 19.1911 37.6117 19.3952 37.0242 19.8033C36.4429 20.2053 36.0007 20.799 35.6977 21.5844C35.4008 22.3636 35.2524 23.3222 35.2524 24.4601C35.2524 25.598 35.4008 26.5597 35.6977 27.3451C36.0007 28.1243 36.4429 28.718 37.0242 29.1262C37.6117 29.5281 38.3322 29.7291 39.1856 29.7291C40.039 29.7291 40.7564 29.5281 41.3377 29.1262C41.9252 28.718 42.3674 28.1243 42.6643 27.3451C42.9673 26.5597 43.1188 25.598 43.1188 24.4601Z" fill="black"/>
</svg>
